<svg width="24" height="24" viewBox="0 0 24 24" fill="none" xmlns="http://www.w3.org/2000/svg">
<path d="M11.1445 12.0766L1.09139 21.4112C0.876252 21.6108 0.75 21.8827 0.75 22.1723C0.75 22.4618 0.876252 22.7337 1.09139 22.9334L1.09134 22.9334L1.09579 22.9374L1.10493 22.9455C1.21047 23.0431 1.33554 23.1194 1.47188 23.1712C1.60928 23.2234 1.75629 23.25 1.90421 23.25C2.05213 23.25 2.19914 23.2234 2.33654 23.1712C2.47387 23.1191 2.59977 23.042 2.7058 22.9433C2.70587 22.9433 2.70593 22.9432 2.70599 22.9431L12.0019 14.3111L21.294 22.9431C21.4001 23.0419 21.526 23.119 21.6635 23.1712C21.8009 23.2234 21.9479 23.25 22.0958 23.25C22.2437 23.25 22.3907 23.2234 22.5281 23.1712C22.6645 23.1194 22.7895 23.0431 22.8951 22.9454L22.9042 22.9374L22.9043 22.9374L22.9086 22.9334C23.1237 22.7337 23.25 22.4618 23.25 22.1723C23.25 21.8827 23.1238 21.6109 22.9087 21.4112C22.9086 21.4112 22.9086 21.4112 22.9086 21.4112L12.8555 12.0766L12.8555 12.0766L12.6854 12.2598L11.1445 12.0766Z" fill="#C5C5C5" stroke="#C5C5C5" stroke-width="0.5"/>
<path d="M11.1445 1.07659L1.09139 10.4112C0.876252 10.6108 0.75 10.8827 0.75 11.1723C0.75 11.4618 0.876252 11.7337 1.09139 11.9334L1.09134 11.9334L1.09579 11.9374L1.10493 11.9455C1.21047 12.0431 1.33554 12.1194 1.47188 12.1712C1.60928 12.2234 1.75629 12.25 1.90421 12.25C2.05213 12.25 2.19914 12.2234 2.33654 12.1712C2.47387 12.1191 2.59977 12.042 2.7058 11.9433C2.70587 11.9433 2.70593 11.9432 2.70599 11.9431L12.0019 3.31113L21.294 11.9431C21.4001 12.0419 21.526 12.119 21.6635 12.1712C21.8009 12.2234 21.9479 12.25 22.0958 12.25C22.2437 12.25 22.3907 12.2234 22.5281 12.1712C22.6645 12.1194 22.7895 12.0431 22.8951 11.9454L22.9042 11.9374L22.9043 11.9374L22.9086 11.9334C23.1237 11.7337 23.25 11.4618 23.25 11.1723C23.25 10.8827 23.1238 10.6109 22.9087 10.4112C22.9086 10.4112 22.9086 10.4112 22.9086 10.4112L12.8555 1.07659L12.8555 1.07659L12.6854 1.25979L11.1445 1.07659Z" fill="white" stroke="#E3E3E3" stroke-width="0.5"/>
</svg>
