<svg width="26" height="29" viewBox="0 0 26 29" fill="none" xmlns="http://www.w3.org/2000/svg">
<path fill-rule="evenodd" clip-rule="evenodd" d="M20.1958 7.18221C20.1958 3.21621 16.9817 0.00132167 13.016 7.4029e-05C9.04974 -0.0169678 5.82266 3.18497 5.80437 7.15041H5.80436V7.15502V7.18221C5.80436 7.26991 5.81565 7.35498 5.83686 7.43603C0.794241 8.70529 -0.995726 11.7845 0.524084 17.418C2.61485 25.17 3.68671 28.1036 13 28.1036C22.3133 28.1036 23.3851 25.17 25.4759 17.418C26.9957 11.7846 25.2058 8.70538 20.1633 7.43609C20.1845 7.35502 20.1958 7.26993 20.1958 7.18221ZM18.1943 7.05411C18.1263 4.25111 15.8331 2.00007 13.0137 2.00007H13.0091L13.0091 2.00006C10.1827 1.98703 7.87504 4.24031 7.80589 7.05408C9.31881 6.83522 11.0505 6.73231 13 6.73231C14.9495 6.73231 16.6813 6.83523 18.1943 7.05411ZM17.1393 12.6275C16.587 12.6275 16.1393 13.0752 16.1393 13.6275C16.1393 14.1798 16.587 14.6275 17.1393 14.6275H17.2052C17.7574 14.6275 18.2052 14.1798 18.2052 13.6275C18.2052 13.0752 17.7574 12.6275 17.2052 12.6275H17.1393ZM8.79465 12.6275C8.24237 12.6275 7.79465 13.0752 7.79465 13.6275C7.79465 14.1798 8.24237 14.6275 8.79465 14.6275H8.86048C9.41277 14.6275 9.86048 14.1798 9.86048 13.6275C9.86048 13.0752 9.41277 12.6275 8.86048 12.6275H8.79465Z" fill="black"/>
</svg>
