<svg width="20" height="14" viewBox="0 0 20 14" fill="none" xmlns="http://www.w3.org/2000/svg">
<path d="M10 9C11.1046 9 12 8.10457 12 7C12 5.89543 11.1046 5 10 5C8.89544 5 8.00001 5.89543 8.00001 7C8.00001 8.10457 8.89544 9 10 9Z" fill="#C7C2D3"/>
<path fill-rule="evenodd" clip-rule="evenodd" d="M0.457764 7.00004C1.73202 2.94291 5.52232 0 9.99997 0C14.4776 0 18.2679 2.94288 19.5422 6.99996C18.2679 11.0571 14.4776 14 9.99995 14C5.52232 14 1.73204 11.0571 0.457764 7.00004ZM14 7C14 9.20914 12.2091 11 10 11C7.79087 11 6.00001 9.20914 6.00001 7C6.00001 4.79086 7.79087 3 10 3C12.2091 3 14 4.79086 14 7Z" fill="#C7C2D3"/>
</svg>
