<svg width="29" height="27" viewBox="0 0 29 27" fill="none" xmlns="http://www.w3.org/2000/svg">
<path fill-rule="evenodd" clip-rule="evenodd" d="M0.55785 12.8987C-1.0518 7.87322 0.829375 2.12918 6.10537 0.429523C8.88063 -0.466061 11.9439 0.0619886 14.2511 1.79765C16.4338 0.109993 19.6096 -0.46006 22.3819 0.429523C27.6579 2.12918 29.5511 7.87322 27.9429 12.8987C25.4377 20.8644 14.2511 27 14.2511 27C14.2511 27 3.14709 20.9574 0.55785 12.8987ZM19.3004 5.24283C19.4703 4.71734 20.0341 4.4291 20.5595 4.59902C22.5491 5.24238 23.9551 7.01847 24.1244 9.10294C24.169 9.65341 23.759 10.1359 23.2086 10.1806C22.6581 10.2253 22.1756 9.81524 22.1309 9.26476C22.0271 7.98591 21.1649 6.89674 19.9442 6.502C19.4187 6.33208 19.1305 5.76833 19.3004 5.24283Z" fill="black"/>
</svg>
