<svg width="31" height="29" viewBox="0 0 31 29" fill="none" xmlns="http://www.w3.org/2000/svg">
<path fill-rule="evenodd" clip-rule="evenodd" d="M0.594781 13.7526C-1.12143 8.39444 0.884282 2.27014 6.50956 0.457958C9.46854 -0.496915 12.7346 0.0660924 15.1946 1.91666C17.5218 0.117275 20.9078 -0.490517 23.8636 0.457958C29.4889 2.27014 31.5074 8.39444 29.7928 13.7526C27.1217 22.2457 15.1946 28.7875 15.1946 28.7875C15.1946 28.7875 3.35544 22.3449 0.594781 13.7526ZM20.6411 5.6103C20.811 5.08481 21.3748 4.79656 21.9003 4.96649C23.9961 5.64421 25.4772 7.51515 25.6555 9.71094C25.7002 10.2614 25.2901 10.7439 24.7397 10.7886C24.1892 10.8333 23.7067 10.4232 23.662 9.87276C23.5492 8.48258 22.6119 7.29857 21.2849 6.86947C20.7594 6.69954 20.4712 6.13579 20.6411 5.6103Z" fill="black"/>
</svg>
