<svg width="28" height="29" viewBox="0 0 28 29" fill="none" xmlns="http://www.w3.org/2000/svg">
<path fill-rule="evenodd" clip-rule="evenodd" d="M0 16.8139C0 8.73067 0.881392 9.29482 5.6257 4.89503C7.70142 3.22412 10.9313 0 13.7204 0C16.5082 0 19.8026 3.20833 21.897 4.89503C26.6413 9.29482 27.5213 8.73067 27.5213 16.8139C27.5213 28.7099 24.7091 28.7099 13.7606 28.7099C2.81213 28.7099 0 28.7099 0 16.8139ZM8.58724 20.2913C8.58724 19.739 9.03495 19.2913 9.58724 19.2913H17.9346C18.4869 19.2913 18.9346 19.739 18.9346 20.2913C18.9346 20.8436 18.4869 21.2913 17.9346 21.2913H9.58724C9.03495 21.2913 8.58724 20.8436 8.58724 20.2913Z" fill="black"/>
</svg>
