<?xml version="1.0" standalone="no"?>
<!DOCTYPE svg PUBLIC "-//W3C//DTD SVG 20010904//EN"
 "http://www.w3.org/TR/2001/REC-SVG-20010904/DTD/svg10.dtd">
<svg version="1.0" xmlns="http://www.w3.org/2000/svg"
 width="3500.000000" height="1247.000000" viewBox="0 0 3500.000000 1247.000000"
 preserveAspectRatio="xMidYMid meet">

<g transform="translate(0.000000,1247.000000) scale(0.100000,-0.100000)"
fill="#000000" stroke="none">
<path d="M4873 12268 c-2147 -2336 -3234 -3778 -3967 -5258 -512 -1035 -801
-1981 -888 -2905 -19 -209 -16 -712 6 -900 80 -683 280 -1197 665 -1711 140
-186 448 -503 628 -646 98 -79 298 -214 417 -282 646 -372 1461 -566 2381
-566 1321 0 2977 383 4790 1108 396 158 755 310 2245 947 415 178 1457 623
2315 990 858 367 1916 819 2350 1005 435 186 1508 645 2385 1020 877 375 1951
834 2385 1020 435 186 1150 492 1590 680 885 379 1525 652 4185 1790 1729 740
2594 1110 4830 2066 2493 1067 3779 1619 3777 1621 -1 1 -202 -52 -447 -117
-245 -65 -717 -190 -1050 -278 -2395 -636 -5269 -1400 -6310 -1677 -173 -46
-706 -188 -1185 -315 -478 -127 -1079 -287 -1335 -355 -256 -68 -1111 -295
-1900 -505 -789 -210 -1644 -437 -1900 -505 -256 -68 -933 -248 -1505 -400
-572 -152 -1182 -314 -1355 -360 -336 -89 -1832 -487 -4065 -1080 -4109 -1091
-4500 -1194 -4765 -1249 -407 -85 -853 -151 -1270 -188 -197 -18 -949 -17
-1130 0 -921 90 -1559 352 -2093 862 -452 431 -743 965 -867 1590 -53 267 -65
403 -65 755 0 417 22 636 110 1070 174 864 586 1893 1120 2795 74 126 87 150
81 150 -3 0 -76 -78 -163 -172z"/>
</g>
</svg>
