<svg width="32" height="32" viewBox="0 0 32 32" fill="none" xmlns="http://www.w3.org/2000/svg">
<path fill-rule="evenodd" clip-rule="evenodd" d="M15.7927 28.8826C10.8703 28.8826 6.66669 28.1166 6.66669 25.0489C6.66669 21.9812 10.8437 19.1492 15.7927 19.1492C20.7152 19.1492 24.9188 21.9537 24.9188 25.0214C24.9188 28.0879 20.7418 28.8826 15.7927 28.8826Z" stroke="black" stroke-width="2" stroke-linecap="round" stroke-linejoin="round"/>
<path fill-rule="evenodd" clip-rule="evenodd" d="M15.7831 14.8982C19.0134 14.8982 21.6316 12.28 21.6316 9.04971C21.6316 5.81941 19.0134 3.20001 15.7831 3.20001C12.5528 3.20001 9.93338 5.81941 9.93338 9.04971C9.92247 12.2691 12.5225 14.8873 15.7419 14.8982C15.7564 14.8982 15.7697 14.8982 15.7831 14.8982Z" stroke="black" stroke-width="2" stroke-linecap="round" stroke-linejoin="round"/>
</svg>
