<svg width="15" height="15" viewBox="0 0 15 15" fill="none" xmlns="http://www.w3.org/2000/svg">
<path d="M7.14355 14.2939C11.0605 14.2939 14.2871 11.0605 14.2871 7.14355C14.2871 3.22656 11.0537 0 7.14355 0C3.22656 0 0 3.22656 0 7.14355C0 11.0605 3.22656 14.2939 7.14355 14.2939ZM6.38477 10.5479C6.09766 10.5479 5.87207 10.4248 5.66699 10.1719L4.02637 8.19629C3.88965 8.01855 3.82812 7.85449 3.82812 7.66992C3.82812 7.28027 4.13574 6.97266 4.52539 6.97266C4.75098 6.97266 4.92871 7.06152 5.10645 7.28027L6.36426 8.8457L9.10547 4.4707C9.26953 4.2041 9.48145 4.07422 9.7207 4.07422C10.1035 4.07422 10.4453 4.34766 10.4453 4.7373C10.4453 4.90137 10.3701 5.0791 10.2607 5.24316L7.06836 10.1582C6.9043 10.4111 6.6582 10.5479 6.38477 10.5479Z" fill="#629677"/>
</svg>
