<svg width="15" height="15" viewBox="0 0 15 15" fill="none" xmlns="http://www.w3.org/2000/svg">
<circle cx="7.5" cy="7.5" r="7.5" fill="#DA7676"/>
<path d="M8.2639 7.49964L9.96516 5.8021L9.96526 5.802C10.0671 5.70016 10.1243 5.56204 10.1243 5.41803C10.1243 5.27401 10.0671 5.13589 9.96526 5.03406C9.86344 4.93222 9.72533 4.875 9.58132 4.875C9.43731 4.875 9.2992 4.93222 9.19738 5.03406L9.19728 5.03416L7.5 6.73563L5.80272 5.03416L5.80262 5.03406C5.7008 4.93222 5.56269 4.875 5.41868 4.875C5.27467 4.875 5.13656 4.93222 5.03474 5.03406C4.93291 5.13589 4.87571 5.27401 4.87571 5.41803C4.87571 5.56204 4.93291 5.70016 5.03474 5.802L5.03484 5.8021L6.7361 7.49964L5.0351 9.19693C5.03506 9.19697 5.03502 9.19701 5.03498 9.19705C4.9843 9.24735 4.94408 9.30718 4.91662 9.37309C4.88915 9.43905 4.875 9.5098 4.875 9.58126C4.875 9.65272 4.88915 9.72347 4.91662 9.78944C4.94404 9.85524 4.98418 9.91499 5.03474 9.96523C5.03486 9.96536 5.03498 9.96548 5.0351 9.9656L5.12313 9.87685M8.2639 7.49964L5.80282 9.96504L5.80272 9.96513L5.71423 9.87685M8.2639 7.49964L9.9649 9.19693L9.87687 9.28567M8.2639 7.49964L7.58828 8.17516M5.12313 9.87685C5.16183 9.91587 5.20787 9.94685 5.25859 9.96798C5.30932 9.98912 5.36373 10 5.41868 10C5.47363 10 5.52804 9.98912 5.57876 9.96798C5.62949 9.94685 5.67553 9.91587 5.71423 9.87685M5.12313 9.87685C5.08411 9.83815 5.05315 9.7921 5.03201 9.74137C5.01088 9.69064 5 9.63622 5 9.58126C5 9.5263 5.01088 9.47189 5.03201 9.42115C5.05315 9.37042 5.08411 9.32438 5.12313 9.28567V9.87685ZM5.71423 9.87685L5.80298 9.96487L7.5 8.26366M5.71423 9.87685L7.41172 8.17516L7.5 8.26366M7.5 8.26366L7.58828 8.17516M7.5 8.26366L9.19702 9.96487L9.28577 9.87685M7.58828 8.17516L9.28577 9.87685M7.58828 8.17516L9.87687 9.87685M9.28577 9.87685L9.19728 9.96513L9.19716 9.96501C9.24745 10.0157 9.30726 10.0559 9.37316 10.0834C9.43912 10.1109 9.50987 10.125 9.58132 10.125C9.65278 10.125 9.72353 10.1109 9.78949 10.0834C9.85529 10.0559 9.91503 10.0158 9.96527 9.96523C10.0158 9.91498 10.056 9.85524 10.0834 9.78944C10.1109 9.72347 10.125 9.65272 10.125 9.58126C10.125 9.5098 10.1109 9.43905 10.0834 9.37309C10.0559 9.30719 10.0157 9.24738 9.96506 9.19709L9.96516 9.19719L9.87687 9.28567M9.28577 9.87685C9.32447 9.91587 9.37051 9.94685 9.42124 9.96798C9.47196 9.98912 9.52637 10 9.58132 10C9.63627 10 9.69068 9.98912 9.74141 9.96798C9.79213 9.94685 9.83817 9.91587 9.87687 9.87685M9.87687 9.28567C9.91588 9.32438 9.94685 9.37042 9.96799 9.42115C9.98912 9.47189 10 9.5263 10 9.58126C10 9.63622 9.98912 9.69064 9.96799 9.74137C9.94685 9.7921 9.91588 9.83815 9.87687 9.87685M9.87687 9.28567V9.87685" fill="white" stroke="white" stroke-width="0.25"/>
</svg>
